solid OpenSCAD_Model
  facet normal 0 1 0
    outer loop
      vertex 65 7.5 0
      vertex -65 7.5 17
      vertex 65 7.5 17
    endloop
  endfacet
  facet normal 0 1 0
    outer loop
      vertex -65 7.5 17
      vertex 65 7.5 0
      vertex -65 7.5 0
    endloop
  endfacet
  facet normal 0 0 1
    outer loop
      vertex -65 3.5 4
      vertex 65 -3.5 4
      vertex 65 3.5 4
    endloop
  endfacet
  facet normal 0 0 1
    outer loop
      vertex 65 -3.5 4
      vertex -65 3.5 4
      vertex -65 -3.5 4
    endloop
  endfacet
  facet normal 0 0 -1
    outer loop
      vertex -65 -7.5 0
      vertex 65 7.5 0
      vertex 65 -7.5 0
    endloop
  endfacet
  facet normal 0 0 -1
    outer loop
      vertex 65 7.5 0
      vertex -65 -7.5 0
      vertex -65 7.5 0
    endloop
  endfacet
  facet normal 0 -1 0
    outer loop
      vertex -65 -7.5 0
      vertex -11 -7.5 17
      vertex -65 -7.5 17
    endloop
  endfacet
  facet normal 0 -1 0
    outer loop
      vertex -11 -7.5 17
      vertex -65 -7.5 0
      vertex 11 -7.5 17
    endloop
  endfacet
  facet normal 0 -1 0
    outer loop
      vertex 65 -7.5 0
      vertex 11 -7.5 17
      vertex -65 -7.5 0
    endloop
  endfacet
  facet normal 0 -1 0
    outer loop
      vertex 11 -7.5 17
      vertex 65 -7.5 0
      vertex 65 -7.5 17
    endloop
  endfacet
  facet normal 0 -1 0
    outer loop
      vertex -11 -7.5 17
      vertex 11 -7.5 50
      vertex -11 -7.5 50
    endloop
  endfacet
  facet normal 0 -1 0
    outer loop
      vertex 11 -7.5 50
      vertex -11 -7.5 17
      vertex 11 -7.5 17
    endloop
  endfacet
  facet normal 1 0 0
    outer loop
      vertex 65 -3.5 17
      vertex 65 -7.5 17
      vertex 65 -3.5 4
    endloop
  endfacet
  facet normal 1 0 0
    outer loop
      vertex 65 3.5 4
      vertex 65 7.5 17
      vertex 65 3.5 17
    endloop
  endfacet
  facet normal 1 0 0
    outer loop
      vertex 65 7.5 17
      vertex 65 3.5 4
      vertex 65 7.5 0
    endloop
  endfacet
  facet normal 1 0 0
    outer loop
      vertex 65 -3.5 4
      vertex 65 7.5 0
      vertex 65 3.5 4
    endloop
  endfacet
  facet normal 1 0 0
    outer loop
      vertex 65 -3.5 4
      vertex 65 -7.5 0
      vertex 65 7.5 0
    endloop
  endfacet
  facet normal 1 0 0
    outer loop
      vertex 65 -7.5 0
      vertex 65 -3.5 4
      vertex 65 -7.5 17
    endloop
  endfacet
  facet normal -1 0 0
    outer loop
      vertex -65 7.5 0
      vertex -65 3.5 4
      vertex -65 7.5 17
    endloop
  endfacet
  facet normal -1 0 0
    outer loop
      vertex -65 7.5 0
      vertex -65 -3.5 4
      vertex -65 3.5 4
    endloop
  endfacet
  facet normal -1 0 0
    outer loop
      vertex -65 -7.5 0
      vertex -65 -3.5 4
      vertex -65 7.5 0
    endloop
  endfacet
  facet normal -1 0 0
    outer loop
      vertex -65 -7.5 17
      vertex -65 -3.5 4
      vertex -65 -7.5 0
    endloop
  endfacet
  facet normal -1 0 0
    outer loop
      vertex -65 -3.5 4
      vertex -65 -7.5 17
      vertex -65 -3.5 17
    endloop
  endfacet
  facet normal -1 0 0
    outer loop
      vertex -65 7.5 17
      vertex -65 3.5 4
      vertex -65 3.5 17
    endloop
  endfacet
  facet normal 0 0 1
    outer loop
      vertex -65 7.5 17
      vertex 65 3.5 17
      vertex 65 7.5 17
    endloop
  endfacet
  facet normal 0 0 1
    outer loop
      vertex 65 3.5 17
      vertex -65 7.5 17
      vertex -65 3.5 17
    endloop
  endfacet
  facet normal 0 -1 0
    outer loop
      vertex -65 3.5 4
      vertex 65 3.5 17
      vertex -65 3.5 17
    endloop
  endfacet
  facet normal 0 -1 0
    outer loop
      vertex 65 3.5 17
      vertex -65 3.5 4
      vertex 65 3.5 4
    endloop
  endfacet
  facet normal 0 1 0
    outer loop
      vertex 65 -3.5 4
      vertex 11 -3.5 17
      vertex 65 -3.5 17
    endloop
  endfacet
  facet normal 0 1 0
    outer loop
      vertex 11 -3.5 17
      vertex 65 -3.5 4
      vertex -11 -3.5 17
    endloop
  endfacet
  facet normal 0 1 0
    outer loop
      vertex -65 -3.5 4
      vertex -11 -3.5 17
      vertex 65 -3.5 4
    endloop
  endfacet
  facet normal 0 1 0
    outer loop
      vertex -11 -3.5 17
      vertex -65 -3.5 4
      vertex -65 -3.5 17
    endloop
  endfacet
  facet normal 0 1 0
    outer loop
      vertex 11 -3.5 17
      vertex -11 -3.5 50
      vertex 11 -3.5 50
    endloop
  endfacet
  facet normal 0 1 0
    outer loop
      vertex -11 -3.5 50
      vertex 11 -3.5 17
      vertex -11 -3.5 17
    endloop
  endfacet
  facet normal 0 0 1
    outer loop
      vertex 11 -3.5 17
      vertex 65 -7.5 17
      vertex 65 -3.5 17
    endloop
  endfacet
  facet normal 0 0 1
    outer loop
      vertex 65 -7.5 17
      vertex 11 -3.5 17
      vertex 11 -7.5 17
    endloop
  endfacet
  facet normal 0 0 1
    outer loop
      vertex -65 -3.5 17
      vertex -11 -7.5 17
      vertex -11 -3.5 17
    endloop
  endfacet
  facet normal 0 0 1
    outer loop
      vertex -11 -7.5 17
      vertex -65 -3.5 17
      vertex -65 -7.5 17
    endloop
  endfacet
  facet normal 0 0 1
    outer loop
      vertex -11 -3.5 50
      vertex 11 -7.5 50
      vertex 11 -3.5 50
    endloop
  endfacet
  facet normal 0 0 1
    outer loop
      vertex 11 -7.5 50
      vertex -11 -3.5 50
      vertex -11 -7.5 50
    endloop
  endfacet
  facet normal 1 0 0
    outer loop
      vertex 11 -7.5 50
      vertex 11 -3.5 17
      vertex 11 -3.5 50
    endloop
  endfacet
  facet normal 1 0 0
    outer loop
      vertex 11 -3.5 17
      vertex 11 -7.5 50
      vertex 11 -7.5 17
    endloop
  endfacet
  facet normal -1 0 0
    outer loop
      vertex -11 -7.5 17
      vertex -11 -3.5 50
      vertex -11 -3.5 17
    endloop
  endfacet
  facet normal -1 0 0
    outer loop
      vertex -11 -3.5 50
      vertex -11 -7.5 17
      vertex -11 -7.5 50
    endloop
  endfacet
endsolid OpenSCAD_Model
