solid OpenSCAD_Model
  facet normal 0 1 0
    outer loop
      vertex 65 25 0
      vertex -65 25 20
      vertex 65 25 20
    endloop
  endfacet
  facet normal 0 1 0
    outer loop
      vertex -65 25 20
      vertex 65 25 0
      vertex -65 25 0
    endloop
  endfacet
  facet normal 0 0 -1
    outer loop
      vertex -65 -25 0
      vertex 65 25 0
      vertex 65 -25 0
    endloop
  endfacet
  facet normal 0 0 -1
    outer loop
      vertex 65 25 0
      vertex -65 -25 0
      vertex -65 25 0
    endloop
  endfacet
  facet normal 1 0 0
    outer loop
      vertex 65 -20 20
      vertex 65 -25 20
      vertex 65 -20 10
    endloop
  endfacet
  facet normal 1 0 0
    outer loop
      vertex 65 20 10
      vertex 65 25 20
      vertex 65 20 20
    endloop
  endfacet
  facet normal 1 0 0
    outer loop
      vertex 65 25 20
      vertex 65 20 10
      vertex 65 25 0
    endloop
  endfacet
  facet normal 1 0 0
    outer loop
      vertex 65 19.990135 9.686047
      vertex 65 25 0
      vertex 65 20 10
    endloop
  endfacet
  facet normal 1 0 0
    outer loop
      vertex 65 19.960575 9.373333
      vertex 65 25 0
      vertex 65 19.990135 9.686047
    endloop
  endfacet
  facet normal 1 0 0
    outer loop
      vertex 65 19.911438 9.063093
      vertex 65 25 0
      vertex 65 19.960575 9.373333
    endloop
  endfacet
  facet normal 1 0 0
    outer loop
      vertex 65 19.842916 8.75655
      vertex 65 25 0
      vertex 65 19.911438 9.063093
    endloop
  endfacet
  facet normal 1 0 0
    outer loop
      vertex 65 19.755283 8.454914
      vertex 65 25 0
      vertex 65 19.842916 8.75655
    endloop
  endfacet
  facet normal 1 0 0
    outer loop
      vertex 65 19.648884 8.159377
      vertex 65 25 0
      vertex 65 19.755283 8.454914
    endloop
  endfacet
  facet normal 1 0 0
    outer loop
      vertex 65 19.524136 7.8711033
      vertex 65 25 0
      vertex 65 19.648884 8.159377
    endloop
  endfacet
  facet normal 1 0 0
    outer loop
      vertex 65 19.381535 7.5912313
      vertex 65 25 0
      vertex 65 19.524136 7.8711033
    endloop
  endfacet
  facet normal 1 0 0
    outer loop
      vertex 65 19.22164 7.3208656
      vertex 65 25 0
      vertex 65 19.381535 7.5912313
    endloop
  endfacet
  facet normal 1 0 0
    outer loop
      vertex 65 19.045086 7.0610733
      vertex 65 25 0
      vertex 65 19.22164 7.3208656
    endloop
  endfacet
  facet normal 1 0 0
    outer loop
      vertex 65 18.852566 6.8128796
      vertex 65 25 0
      vertex 65 19.045086 7.0610733
    endloop
  endfacet
  facet normal 1 0 0
    outer loop
      vertex 65 18.644844 6.577264
      vertex 65 25 0
      vertex 65 18.852566 6.8128796
    endloop
  endfacet
  facet normal 1 0 0
    outer loop
      vertex 65 18.422737 6.355156
      vertex 65 25 0
      vertex 65 18.644844 6.577264
    endloop
  endfacet
  facet normal 1 0 0
    outer loop
      vertex 65 18.18712 6.1474333
      vertex 65 25 0
      vertex 65 18.422737 6.355156
    endloop
  endfacet
  facet normal 1 0 0
    outer loop
      vertex 65 17.938927 5.954914
      vertex 65 25 0
      vertex 65 18.18712 6.1474333
    endloop
  endfacet
  facet normal 1 0 0
    outer loop
      vertex 65 17.679134 5.7783604
      vertex 65 25 0
      vertex 65 17.938927 5.954914
    endloop
  endfacet
  facet normal 1 0 0
    outer loop
      vertex 65 17.408768 5.6184664
      vertex 65 25 0
      vertex 65 17.679134 5.7783604
    endloop
  endfacet
  facet normal 1 0 0
    outer loop
      vertex 65 17.128897 5.4758644
      vertex 65 25 0
      vertex 65 17.408768 5.6184664
    endloop
  endfacet
  facet normal 1 0 0
    outer loop
      vertex 65 16.840622 5.351117
      vertex 65 25 0
      vertex 65 17.128897 5.4758644
    endloop
  endfacet
  facet normal 1 0 0
    outer loop
      vertex 65 16.545086 5.2447166
      vertex 65 25 0
      vertex 65 16.840622 5.351117
    endloop
  endfacet
  facet normal 1 0 0
    outer loop
      vertex 65 16.24345 5.1570835
      vertex 65 25 0
      vertex 65 16.545086 5.2447166
    endloop
  endfacet
  facet normal 1 0 0
    outer loop
      vertex 65 15.936907 5.088563
      vertex 65 25 0
      vertex 65 16.24345 5.1570835
    endloop
  endfacet
  facet normal 1 0 0
    outer loop
      vertex 65 15.626667 5.039426
      vertex 65 25 0
      vertex 65 15.936907 5.088563
    endloop
  endfacet
  facet normal 1 0 0
    outer loop
      vertex 65 15.313953 5.0098658
      vertex 65 25 0
      vertex 65 15.626667 5.039426
    endloop
  endfacet
  facet normal 1 0 0
    outer loop
      vertex 65 15 5
      vertex 65 25 0
      vertex 65 15.313953 5.0098658
    endloop
  endfacet
  facet normal 1 0 0
    outer loop
      vertex 65 -15 5
      vertex 65 25 0
      vertex 65 15 5
    endloop
  endfacet
  facet normal 1 0 0
    outer loop
      vertex 65 -25 0
      vertex 65 -15 5
      vertex 65 -15.313953 5.0098658
    endloop
  endfacet
  facet normal 1 0 0
    outer loop
      vertex 65 -25 0
      vertex 65 -15.313953 5.0098658
      vertex 65 -15.626667 5.039426
    endloop
  endfacet
  facet normal 1 0 0
    outer loop
      vertex 65 -25 0
      vertex 65 -20 10
      vertex 65 -25 20
    endloop
  endfacet
  facet normal 1 0 0
    outer loop
      vertex 65 -20 10
      vertex 65 -25 0
      vertex 65 -19.990135 9.686047
    endloop
  endfacet
  facet normal 1 0 0
    outer loop
      vertex 65 -19.990135 9.686047
      vertex 65 -25 0
      vertex 65 -19.960575 9.373333
    endloop
  endfacet
  facet normal 1 0 0
    outer loop
      vertex 65 -19.960575 9.373333
      vertex 65 -25 0
      vertex 65 -19.911438 9.063093
    endloop
  endfacet
  facet normal 1 0 0
    outer loop
      vertex 65 -19.911438 9.063093
      vertex 65 -25 0
      vertex 65 -19.842916 8.75655
    endloop
  endfacet
  facet normal 1 0 0
    outer loop
      vertex 65 -19.842916 8.75655
      vertex 65 -25 0
      vertex 65 -19.755283 8.454914
    endloop
  endfacet
  facet normal 1 0 0
    outer loop
      vertex 65 -19.755283 8.454914
      vertex 65 -25 0
      vertex 65 -19.648884 8.159377
    endloop
  endfacet
  facet normal 1 0 0
    outer loop
      vertex 65 -15 5
      vertex 65 -25 0
      vertex 65 25 0
    endloop
  endfacet
  facet normal 1 0 0
    outer loop
      vertex 65 -15.936907 5.088563
      vertex 65 -25 0
      vertex 65 -15.626667 5.039426
    endloop
  endfacet
  facet normal 1 0 0
    outer loop
      vertex 65 -16.24345 5.1570835
      vertex 65 -25 0
      vertex 65 -15.936907 5.088563
    endloop
  endfacet
  facet normal 1 0 0
    outer loop
      vertex 65 -16.545086 5.2447166
      vertex 65 -25 0
      vertex 65 -16.24345 5.1570835
    endloop
  endfacet
  facet normal 1 0 0
    outer loop
      vertex 65 -16.840622 5.351117
      vertex 65 -25 0
      vertex 65 -16.545086 5.2447166
    endloop
  endfacet
  facet normal 1 0 0
    outer loop
      vertex 65 -17.128897 5.4758644
      vertex 65 -25 0
      vertex 65 -16.840622 5.351117
    endloop
  endfacet
  facet normal 1 0 0
    outer loop
      vertex 65 -17.408768 5.6184664
      vertex 65 -25 0
      vertex 65 -17.128897 5.4758644
    endloop
  endfacet
  facet normal 1 0 0
    outer loop
      vertex 65 -17.679134 5.7783604
      vertex 65 -25 0
      vertex 65 -17.408768 5.6184664
    endloop
  endfacet
  facet normal 1 0 0
    outer loop
      vertex 65 -17.938927 5.954914
      vertex 65 -25 0
      vertex 65 -17.679134 5.7783604
    endloop
  endfacet
  facet normal 1 0 0
    outer loop
      vertex 65 -18.18712 6.1474333
      vertex 65 -25 0
      vertex 65 -17.938927 5.954914
    endloop
  endfacet
  facet normal 1 0 0
    outer loop
      vertex 65 -18.422737 6.355156
      vertex 65 -25 0
      vertex 65 -18.18712 6.1474333
    endloop
  endfacet
  facet normal 1 0 0
    outer loop
      vertex 65 -18.644844 6.577264
      vertex 65 -25 0
      vertex 65 -18.422737 6.355156
    endloop
  endfacet
  facet normal 1 0 0
    outer loop
      vertex 65 -18.852566 6.8128796
      vertex 65 -25 0
      vertex 65 -18.644844 6.577264
    endloop
  endfacet
  facet normal 1 0 0
    outer loop
      vertex 65 -19.045086 7.0610733
      vertex 65 -25 0
      vertex 65 -18.852566 6.8128796
    endloop
  endfacet
  facet normal 1 0 0
    outer loop
      vertex 65 -19.22164 7.3208656
      vertex 65 -25 0
      vertex 65 -19.045086 7.0610733
    endloop
  endfacet
  facet normal 1 0 0
    outer loop
      vertex 65 -19.381535 7.5912313
      vertex 65 -25 0
      vertex 65 -19.22164 7.3208656
    endloop
  endfacet
  facet normal 1 0 0
    outer loop
      vertex 65 -19.524136 7.8711033
      vertex 65 -25 0
      vertex 65 -19.381535 7.5912313
    endloop
  endfacet
  facet normal 1 0 0
    outer loop
      vertex 65 -19.648884 8.159377
      vertex 65 -25 0
      vertex 65 -19.524136 7.8711033
    endloop
  endfacet
  facet normal -1 0 0
    outer loop
      vertex -65 25 0
      vertex -65 20 10
      vertex -65 25 20
    endloop
  endfacet
  facet normal -1 0 0
    outer loop
      vertex -65 25 0
      vertex -65 19.990135 9.686047
      vertex -65 20 10
    endloop
  endfacet
  facet normal -1 0 0
    outer loop
      vertex -65 25 0
      vertex -65 19.960575 9.373333
      vertex -65 19.990135 9.686047
    endloop
  endfacet
  facet normal -1 0 0
    outer loop
      vertex -65 25 0
      vertex -65 19.911438 9.063093
      vertex -65 19.960575 9.373333
    endloop
  endfacet
  facet normal -1 0 0
    outer loop
      vertex -65 25 0
      vertex -65 19.842916 8.75655
      vertex -65 19.911438 9.063093
    endloop
  endfacet
  facet normal -1 0 0
    outer loop
      vertex -65 25 0
      vertex -65 19.755283 8.454914
      vertex -65 19.842916 8.75655
    endloop
  endfacet
  facet normal -1 0 0
    outer loop
      vertex -65 25 0
      vertex -65 19.648884 8.159377
      vertex -65 19.755283 8.454914
    endloop
  endfacet
  facet normal -1 0 0
    outer loop
      vertex -65 25 0
      vertex -65 19.524136 7.8711033
      vertex -65 19.648884 8.159377
    endloop
  endfacet
  facet normal -1 0 0
    outer loop
      vertex -65 25 0
      vertex -65 19.381535 7.5912313
      vertex -65 19.524136 7.8711033
    endloop
  endfacet
  facet normal -1 0 0
    outer loop
      vertex -65 25 0
      vertex -65 19.22164 7.3208656
      vertex -65 19.381535 7.5912313
    endloop
  endfacet
  facet normal -1 0 0
    outer loop
      vertex -65 25 0
      vertex -65 19.045086 7.0610733
      vertex -65 19.22164 7.3208656
    endloop
  endfacet
  facet normal -1 0 0
    outer loop
      vertex -65 25 0
      vertex -65 18.852566 6.8128796
      vertex -65 19.045086 7.0610733
    endloop
  endfacet
  facet normal -1 0 0
    outer loop
      vertex -65 25 0
      vertex -65 18.644844 6.577264
      vertex -65 18.852566 6.8128796
    endloop
  endfacet
  facet normal -1 0 0
    outer loop
      vertex -65 25 0
      vertex -65 18.422737 6.355156
      vertex -65 18.644844 6.577264
    endloop
  endfacet
  facet normal -1 0 0
    outer loop
      vertex -65 25 0
      vertex -65 18.18712 6.1474333
      vertex -65 18.422737 6.355156
    endloop
  endfacet
  facet normal -1 0 0
    outer loop
      vertex -65 25 0
      vertex -65 17.938927 5.954914
      vertex -65 18.18712 6.1474333
    endloop
  endfacet
  facet normal -1 0 0
    outer loop
      vertex -65 25 0
      vertex -65 17.679134 5.7783604
      vertex -65 17.938927 5.954914
    endloop
  endfacet
  facet normal -1 0 0
    outer loop
      vertex -65 25 0
      vertex -65 17.408768 5.6184664
      vertex -65 17.679134 5.7783604
    endloop
  endfacet
  facet normal -1 0 0
    outer loop
      vertex -65 25 0
      vertex -65 17.128897 5.4758644
      vertex -65 17.408768 5.6184664
    endloop
  endfacet
  facet normal -1 0 0
    outer loop
      vertex -65 25 0
      vertex -65 16.840622 5.351117
      vertex -65 17.128897 5.4758644
    endloop
  endfacet
  facet normal -1 0 0
    outer loop
      vertex -65 25 0
      vertex -65 16.545086 5.2447166
      vertex -65 16.840622 5.351117
    endloop
  endfacet
  facet normal -1 0 0
    outer loop
      vertex -65 25 0
      vertex -65 16.24345 5.1570835
      vertex -65 16.545086 5.2447166
    endloop
  endfacet
  facet normal -1 0 0
    outer loop
      vertex -65 25 0
      vertex -65 15.936907 5.088563
      vertex -65 16.24345 5.1570835
    endloop
  endfacet
  facet normal -1 0 0
    outer loop
      vertex -65 25 0
      vertex -65 15.626667 5.039426
      vertex -65 15.936907 5.088563
    endloop
  endfacet
  facet normal -1 0 0
    outer loop
      vertex -65 25 0
      vertex -65 15.313953 5.0098658
      vertex -65 15.626667 5.039426
    endloop
  endfacet
  facet normal -1 0 0
    outer loop
      vertex -65 25 0
      vertex -65 15 5
      vertex -65 15.313953 5.0098658
    endloop
  endfacet
  facet normal -1 0 0
    outer loop
      vertex -65 25 0
      vertex -65 -15 5
      vertex -65 15 5
    endloop
  endfacet
  facet normal -1 0 0
    outer loop
      vertex -65 -25 0
      vertex -65 -15 5
      vertex -65 25 0
    endloop
  endfacet
  facet normal -1 0 0
    outer loop
      vertex -65 -15 5
      vertex -65 -25 0
      vertex -65 -15.313953 5.0098658
    endloop
  endfacet
  facet normal -1 0 0
    outer loop
      vertex -65 -15.313953 5.0098658
      vertex -65 -25 0
      vertex -65 -15.626667 5.039426
    endloop
  endfacet
  facet normal -1 0 0
    outer loop
      vertex -65 -25 0
      vertex -65 -15.936907 5.088563
      vertex -65 -15.626667 5.039426
    endloop
  endfacet
  facet normal -1 0 0
    outer loop
      vertex -65 -25 0
      vertex -65 -16.24345 5.1570835
      vertex -65 -15.936907 5.088563
    endloop
  endfacet
  facet normal -1 0 0
    outer loop
      vertex -65 -25 0
      vertex -65 -16.545086 5.2447166
      vertex -65 -16.24345 5.1570835
    endloop
  endfacet
  facet normal -1 0 0
    outer loop
      vertex -65 -25 0
      vertex -65 -16.840622 5.351117
      vertex -65 -16.545086 5.2447166
    endloop
  endfacet
  facet normal -1 0 0
    outer loop
      vertex -65 -25 0
      vertex -65 -17.128897 5.4758644
      vertex -65 -16.840622 5.351117
    endloop
  endfacet
  facet normal -1 0 0
    outer loop
      vertex -65 -25 0
      vertex -65 -17.408768 5.6184664
      vertex -65 -17.128897 5.4758644
    endloop
  endfacet
  facet normal -1 0 0
    outer loop
      vertex -65 -25 0
      vertex -65 -17.679134 5.7783604
      vertex -65 -17.408768 5.6184664
    endloop
  endfacet
  facet normal -1 0 0
    outer loop
      vertex -65 -25 0
      vertex -65 -17.938927 5.954914
      vertex -65 -17.679134 5.7783604
    endloop
  endfacet
  facet normal -1 0 0
    outer loop
      vertex -65 -25 0
      vertex -65 -18.18712 6.1474333
      vertex -65 -17.938927 5.954914
    endloop
  endfacet
  facet normal -1 0 0
    outer loop
      vertex -65 -25 0
      vertex -65 -18.422737 6.355156
      vertex -65 -18.18712 6.1474333
    endloop
  endfacet
  facet normal -1 0 0
    outer loop
      vertex -65 -25 0
      vertex -65 -18.644844 6.577264
      vertex -65 -18.422737 6.355156
    endloop
  endfacet
  facet normal -1 0 0
    outer loop
      vertex -65 -25 0
      vertex -65 -18.852566 6.8128796
      vertex -65 -18.644844 6.577264
    endloop
  endfacet
  facet normal -1 0 0
    outer loop
      vertex -65 -25 0
      vertex -65 -19.045086 7.0610733
      vertex -65 -18.852566 6.8128796
    endloop
  endfacet
  facet normal -1 0 0
    outer loop
      vertex -65 -25 0
      vertex -65 -19.22164 7.3208656
      vertex -65 -19.045086 7.0610733
    endloop
  endfacet
  facet normal -1 0 0
    outer loop
      vertex -65 -25 0
      vertex -65 -19.381535 7.5912313
      vertex -65 -19.22164 7.3208656
    endloop
  endfacet
  facet normal -1 0 0
    outer loop
      vertex -65 -25 0
      vertex -65 -19.524136 7.8711033
      vertex -65 -19.381535 7.5912313
    endloop
  endfacet
  facet normal -1 0 0
    outer loop
      vertex -65 -25 0
      vertex -65 -19.648884 8.159377
      vertex -65 -19.524136 7.8711033
    endloop
  endfacet
  facet normal -1 0 0
    outer loop
      vertex -65 -25 0
      vertex -65 -19.755283 8.454914
      vertex -65 -19.648884 8.159377
    endloop
  endfacet
  facet normal -1 0 0
    outer loop
      vertex -65 -25 0
      vertex -65 -19.842916 8.75655
      vertex -65 -19.755283 8.454914
    endloop
  endfacet
  facet normal -1 0 0
    outer loop
      vertex -65 -25 0
      vertex -65 -19.911438 9.063093
      vertex -65 -19.842916 8.75655
    endloop
  endfacet
  facet normal -1 0 0
    outer loop
      vertex -65 -25 0
      vertex -65 -19.960575 9.373333
      vertex -65 -19.911438 9.063093
    endloop
  endfacet
  facet normal -1 0 0
    outer loop
      vertex -65 -25 0
      vertex -65 -19.990135 9.686047
      vertex -65 -19.960575 9.373333
    endloop
  endfacet
  facet normal -1 0 0
    outer loop
      vertex -65 -25 0
      vertex -65 -20 10
      vertex -65 -19.990135 9.686047
    endloop
  endfacet
  facet normal -1 0 0
    outer loop
      vertex -65 -25 20
      vertex -65 -20 10
      vertex -65 -25 0
    endloop
  endfacet
  facet normal -1 0 0
    outer loop
      vertex -65 -20 10
      vertex -65 -25 20
      vertex -65 -20 20
    endloop
  endfacet
  facet normal -1 0 0
    outer loop
      vertex -65 25 20
      vertex -65 20 10
      vertex -65 20 20
    endloop
  endfacet
  facet normal 0 -0.03140878 0.99950665
    outer loop
      vertex -65 15.313953 5.0098658
      vertex 65 15 5
      vertex 65 15.313953 5.0098658
    endloop
  endfacet
  facet normal 0 -0.03140878 0.99950665
    outer loop
      vertex 65 15 5
      vertex -65 15.313953 5.0098658
      vertex -65 15 5
    endloop
  endfacet
  facet normal 0 -0.27899066 0.9602938
    outer loop
      vertex -65 16.545086 5.2447166
      vertex 65 16.24345 5.1570835
      vertex 65 16.545086 5.2447166
    endloop
  endfacet
  facet normal 0 -0.27899066 0.9602938
    outer loop
      vertex 65 16.24345 5.1570835
      vertex -65 16.545086 5.2447166
      vertex -65 16.24345 5.1570835
    endloop
  endfacet
  facet normal 0 -0.15643434 0.98768836
    outer loop
      vertex -65 15.936907 5.088563
      vertex 65 15.626667 5.039426
      vertex 65 15.936907 5.088563
    endloop
  endfacet
  facet normal 0 -0.15643434 0.98768836
    outer loop
      vertex 65 15.626667 5.039426
      vertex -65 15.936907 5.088563
      vertex -65 15.626667 5.039426
    endloop
  endfacet
  facet normal 0 -0.39714694 0.917755
    outer loop
      vertex -65 17.128897 5.4758644
      vertex 65 16.840622 5.351117
      vertex 65 17.128897 5.4758644
    endloop
  endfacet
  facet normal 0 -0.39714694 0.917755
    outer loop
      vertex 65 16.840622 5.351117
      vertex -65 17.128897 5.4758644
      vertex -65 16.840622 5.351117
    endloop
  endfacet
  facet normal 0 -0.8607405 0.50904405
    outer loop
      vertex -65 19.22164 7.3208656
      vertex 65 19.381535 7.5912313
      vertex -65 19.381535 7.5912313
    endloop
  endfacet
  facet normal 0 -0.8607405 0.50904405
    outer loop
      vertex 65 19.381535 7.5912313
      vertex -65 19.22164 7.3208656
      vertex 65 19.22164 7.3208656
    endloop
  endfacet
  facet normal 0 -0.21814321 0.97591674
    outer loop
      vertex -65 16.24345 5.1570835
      vertex 65 15.936907 5.088563
      vertex 65 16.24345 5.1570835
    endloop
  endfacet
  facet normal 0 -0.21814321 0.97591674
    outer loop
      vertex 65 15.936907 5.088563
      vertex -65 16.24345 5.1570835
      vertex -65 15.936907 5.088563
    endloop
  endfacet
  facet normal 0 -0.9408811 0.33873698
    outer loop
      vertex -65 19.648884 8.159377
      vertex 65 19.755283 8.454914
      vertex -65 19.755283 8.454914
    endloop
  endfacet
  facet normal 0 -0.9408811 0.33873698
    outer loop
      vertex 65 19.755283 8.454914
      vertex -65 19.648884 8.159377
      vertex 65 19.648884 8.159377
    endloop
  endfacet
  facet normal 0 -0.7501134 0.6613092
    outer loop
      vertex -65 18.644844 6.577264
      vertex 65 18.852566 6.8128796
      vertex -65 18.852566 6.8128796
    endloop
  endfacet
  facet normal 0 -0.7501134 0.6613092
    outer loop
      vertex 65 18.852566 6.8128796
      vertex -65 18.644844 6.577264
      vertex 65 18.644844 6.577264
    endloop
  endfacet
  facet normal 0 -0.9602938 0.27899066
    outer loop
      vertex -65 19.755283 8.454914
      vertex 65 19.842916 8.75655
      vertex -65 19.842916 8.75655
    endloop
  endfacet
  facet normal 0 -0.9602938 0.27899066
    outer loop
      vertex 65 19.842916 8.75655
      vertex -65 19.755283 8.454914
      vertex 65 19.755283 8.454914
    endloop
  endfacet
  facet normal 0 -0.97591615 0.2181461
    outer loop
      vertex -65 19.842916 8.75655
      vertex 65 19.911438 9.063093
      vertex -65 19.911438 9.063093
    endloop
  endfacet
  facet normal 0 -0.97591615 0.2181461
    outer loop
      vertex 65 19.911438 9.063093
      vertex -65 19.842916 8.75655
      vertex 65 19.842916 8.75655
    endloop
  endfacet
  facet normal 0 -0.5090404 0.8607426
    outer loop
      vertex -65 17.679134 5.7783604
      vertex 65 17.408768 5.6184664
      vertex 65 17.679134 5.7783604
    endloop
  endfacet
  facet normal 0 -0.5090404 0.8607426
    outer loop
      vertex 65 17.408768 5.6184664
      vertex -65 17.679134 5.7783604
      vertex -65 17.408768 5.6184664
    endloop
  endfacet
  facet normal 0 -0.79015297 0.61290973
    outer loop
      vertex -65 18.852566 6.8128796
      vertex 65 19.045086 7.0610733
      vertex -65 19.045086 7.0610733
    endloop
  endfacet
  facet normal 0 -0.79015297 0.61290973
    outer loop
      vertex 65 19.045086 7.0610733
      vertex -65 18.852566 6.8128796
      vertex 65 18.852566 6.8128796
    endloop
  endfacet
  facet normal 0 -0.6129078 0.7901544
    outer loop
      vertex -65 18.18712 6.1474333
      vertex 65 17.938927 5.954914
      vertex 65 18.18712 6.1474333
    endloop
  endfacet
  facet normal 0 -0.6129078 0.7901544
    outer loop
      vertex 65 17.938927 5.954914
      vertex -65 18.18712 6.1474333
      vertex -65 17.938927 5.954914
    endloop
  endfacet
  facet normal 0 -0.45399195 0.89100575
    outer loop
      vertex -65 17.408768 5.6184664
      vertex 65 17.128897 5.4758644
      vertex 65 17.408768 5.6184664
    endloop
  endfacet
  facet normal 0 -0.45399195 0.89100575
    outer loop
      vertex 65 17.128897 5.4758644
      vertex -65 17.408768 5.6184664
      vertex -65 17.128897 5.4758644
    endloop
  endfacet
  facet normal 0 -0.98768836 0.15643434
    outer loop
      vertex -65 19.911438 9.063093
      vertex 65 19.960575 9.373333
      vertex -65 19.960575 9.373333
    endloop
  endfacet
  facet normal 0 -0.98768836 0.15643434
    outer loop
      vertex 65 19.960575 9.373333
      vertex -65 19.911438 9.063093
      vertex 65 19.911438 9.063093
    endloop
  endfacet
  facet normal 0 -0.99556196 0.09410815
    outer loop
      vertex -65 19.960575 9.373333
      vertex 65 19.990135 9.686047
      vertex -65 19.990135 9.686047
    endloop
  endfacet
  facet normal 0 -0.99556196 0.09410815
    outer loop
      vertex 65 19.990135 9.686047
      vertex -65 19.960575 9.373333
      vertex 65 19.960575 9.373333
    endloop
  endfacet
  facet normal 0 -0.33874065 0.94087976
    outer loop
      vertex -65 16.840622 5.351117
      vertex 65 16.545086 5.2447166
      vertex 65 16.840622 5.351117
    endloop
  endfacet
  facet normal 0 -0.33874065 0.94087976
    outer loop
      vertex 65 16.545086 5.2447166
      vertex -65 16.840622 5.351117
      vertex -65 16.545086 5.2447166
    endloop
  endfacet
  facet normal 0 -0.827082 0.5620813
    outer loop
      vertex -65 19.045086 7.0610733
      vertex 65 19.22164 7.3208656
      vertex -65 19.22164 7.3208656
    endloop
  endfacet
  facet normal 0 -0.827082 0.5620813
    outer loop
      vertex 65 19.22164 7.3208656
      vertex -65 19.045086 7.0610733
      vertex 65 19.045086 7.0610733
    endloop
  endfacet
  facet normal 0 -0.7071083 0.7071053
    outer loop
      vertex -65 18.422737 6.355156
      vertex 65 18.644844 6.577264
      vertex -65 18.644844 6.577264
    endloop
  endfacet
  facet normal 0 -0.7071083 0.7071053
    outer loop
      vertex 65 18.644844 6.577264
      vertex -65 18.422737 6.355156
      vertex 65 18.422737 6.355156
    endloop
  endfacet
  facet normal 0 -0.91775346 0.3971506
    outer loop
      vertex -65 19.524136 7.8711033
      vertex 65 19.648884 8.159377
      vertex -65 19.648884 8.159377
    endloop
  endfacet
  facet normal 0 -0.91775346 0.3971506
    outer loop
      vertex 65 19.648884 8.159377
      vertex -65 19.524136 7.8711033
      vertex 65 19.524136 7.8711033
    endloop
  endfacet
  facet normal 0 -0.5620813 0.827082
    outer loop
      vertex -65 17.938927 5.954914
      vertex 65 17.679134 5.7783604
      vertex 65 17.938927 5.954914
    endloop
  endfacet
  facet normal 0 -0.5620813 0.827082
    outer loop
      vertex 65 17.679134 5.7783604
      vertex -65 17.938927 5.954914
      vertex -65 17.679134 5.7783604
    endloop
  endfacet
  facet normal 0 -0.89100766 0.4539883
    outer loop
      vertex -65 19.381535 7.5912313
      vertex 65 19.524136 7.8711033
      vertex -65 19.524136 7.8711033
    endloop
  endfacet
  facet normal 0 -0.89100766 0.4539883
    outer loop
      vertex 65 19.524136 7.8711033
      vertex -65 19.381535 7.5912313
      vertex 65 19.381535 7.5912313
    endloop
  endfacet
  facet normal 0 -0.66130936 0.75011325
    outer loop
      vertex -65 18.422737 6.355156
      vertex 65 18.18712 6.1474333
      vertex 65 18.422737 6.355156
    endloop
  endfacet
  facet normal 0 -0.66130936 0.75011325
    outer loop
      vertex 65 18.18712 6.1474333
      vertex -65 18.422737 6.355156
      vertex -65 18.18712 6.1474333
    endloop
  endfacet
  facet normal 0 -0.9995067 0.031405747
    outer loop
      vertex -65 19.990135 9.686047
      vertex 65 20 10
      vertex -65 20 10
    endloop
  endfacet
  facet normal 0 -0.9995067 0.031405747
    outer loop
      vertex 65 20 10
      vertex -65 19.990135 9.686047
      vertex 65 19.990135 9.686047
    endloop
  endfacet
  facet normal 0 -0.09410815 0.99556196
    outer loop
      vertex -65 15.626667 5.039426
      vertex 65 15.313953 5.0098658
      vertex 65 15.626667 5.039426
    endloop
  endfacet
  facet normal 0 -0.09410815 0.99556196
    outer loop
      vertex 65 15.313953 5.0098658
      vertex -65 15.626667 5.039426
      vertex -65 15.313953 5.0098658
    endloop
  endfacet
  facet normal 0 -1 0
    outer loop
      vertex -65 -25 0
      vertex -64.995 -25 20
      vertex -65 -25 20
    endloop
  endfacet
  facet normal 0 -1 0
    outer loop
      vertex -64.995 -25 20
      vertex -65 -25 0
      vertex -29.7 -25 20
    endloop
  endfacet
  facet normal 0 -1 0
    outer loop
      vertex -29.7 -25 20
      vertex -65 -25 0
      vertex 29.7 -25 20
    endloop
  endfacet
  facet normal 0 -1 0
    outer loop
      vertex 65 -25 0
      vertex 29.7 -25 20
      vertex -65 -25 0
    endloop
  endfacet
  facet normal 0 -1 0
    outer loop
      vertex 29.7 -25 20
      vertex 65 -25 0
      vertex 64.995 -25 20
    endloop
  endfacet
  facet normal 0 -1 0
    outer loop
      vertex 64.995 -25 20
      vertex 65 -25 0
      vertex 65 -25 20
    endloop
  endfacet
  facet normal 0 -1 0
    outer loop
      vertex -64.995 -25 20
      vertex -45 -25 50
      vertex -64.995 -25 50
    endloop
  endfacet
  facet normal 0 -1 0
    outer loop
      vertex -45 -25 50
      vertex -64.995 -25 20
      vertex -29.7 -25 20
    endloop
  endfacet
  facet normal 0 -1 0
    outer loop
      vertex 64.995 -25 20
      vertex 45 -25 50
      vertex 29.7 -25 20
    endloop
  endfacet
  facet normal 0 -1 0
    outer loop
      vertex 45 -25 50
      vertex 64.995 -25 20
      vertex 64.995 -25 50
    endloop
  endfacet
  facet normal 0 0.03140878 0.99950665
    outer loop
      vertex -65 -15 5
      vertex 65 -15.313953 5.0098658
      vertex 65 -15 5
    endloop
  endfacet
  facet normal 0 0.03140878 0.99950665
    outer loop
      vertex 65 -15.313953 5.0098658
      vertex -65 -15 5
      vertex -65 -15.313953 5.0098658
    endloop
  endfacet
  facet normal 0 0.09410815 0.99556196
    outer loop
      vertex -65 -15.313953 5.0098658
      vertex 65 -15.626667 5.039426
      vertex 65 -15.313953 5.0098658
    endloop
  endfacet
  facet normal 0 0.09410815 0.99556196
    outer loop
      vertex 65 -15.626667 5.039426
      vertex -65 -15.313953 5.0098658
      vertex -65 -15.626667 5.039426
    endloop
  endfacet
  facet normal 0 0.5620813 0.827082
    outer loop
      vertex -65 -17.679134 5.7783604
      vertex 65 -17.938927 5.954914
      vertex 65 -17.679134 5.7783604
    endloop
  endfacet
  facet normal 0 0.5620813 0.827082
    outer loop
      vertex 65 -17.938927 5.954914
      vertex -65 -17.679134 5.7783604
      vertex -65 -17.938927 5.954914
    endloop
  endfacet
  facet normal 0 0.21814321 0.97591674
    outer loop
      vertex -65 -15.936907 5.088563
      vertex 65 -16.24345 5.1570835
      vertex 65 -15.936907 5.088563
    endloop
  endfacet
  facet normal 0 0.21814321 0.97591674
    outer loop
      vertex 65 -16.24345 5.1570835
      vertex -65 -15.936907 5.088563
      vertex -65 -16.24345 5.1570835
    endloop
  endfacet
  facet normal 0 0.89100766 0.4539883
    outer loop
      vertex 65 -19.381535 7.5912313
      vertex -65 -19.524136 7.8711033
      vertex 65 -19.524136 7.8711033
    endloop
  endfacet
  facet normal 0 0.89100766 0.4539883
    outer loop
      vertex -65 -19.524136 7.8711033
      vertex 65 -19.381535 7.5912313
      vertex -65 -19.381535 7.5912313
    endloop
  endfacet
  facet normal 0 0.33874065 0.94087976
    outer loop
      vertex -65 -16.545086 5.2447166
      vertex 65 -16.840622 5.351117
      vertex 65 -16.545086 5.2447166
    endloop
  endfacet
  facet normal 0 0.33874065 0.94087976
    outer loop
      vertex 65 -16.840622 5.351117
      vertex -65 -16.545086 5.2447166
      vertex -65 -16.840622 5.351117
    endloop
  endfacet
  facet normal 0 0.15643434 0.98768836
    outer loop
      vertex -65 -15.626667 5.039426
      vertex 65 -15.936907 5.088563
      vertex 65 -15.626667 5.039426
    endloop
  endfacet
  facet normal 0 0.15643434 0.98768836
    outer loop
      vertex 65 -15.936907 5.088563
      vertex -65 -15.626667 5.039426
      vertex -65 -15.936907 5.088563
    endloop
  endfacet
  facet normal 0 0.5090404 0.8607426
    outer loop
      vertex -65 -17.408768 5.6184664
      vertex 65 -17.679134 5.7783604
      vertex 65 -17.408768 5.6184664
    endloop
  endfacet
  facet normal 0 0.5090404 0.8607426
    outer loop
      vertex 65 -17.679134 5.7783604
      vertex -65 -17.408768 5.6184664
      vertex -65 -17.679134 5.7783604
    endloop
  endfacet
  facet normal 0 0.7071083 0.7071053
    outer loop
      vertex 65 -18.422737 6.355156
      vertex -65 -18.644844 6.577264
      vertex 65 -18.644844 6.577264
    endloop
  endfacet
  facet normal 0 0.7071083 0.7071053
    outer loop
      vertex -65 -18.644844 6.577264
      vertex 65 -18.422737 6.355156
      vertex -65 -18.422737 6.355156
    endloop
  endfacet
  facet normal 0 0.79015297 0.61290973
    outer loop
      vertex 65 -18.852566 6.8128796
      vertex -65 -19.045086 7.0610733
      vertex 65 -19.045086 7.0610733
    endloop
  endfacet
  facet normal 0 0.79015297 0.61290973
    outer loop
      vertex -65 -19.045086 7.0610733
      vertex 65 -18.852566 6.8128796
      vertex -65 -18.852566 6.8128796
    endloop
  endfacet
  facet normal 0 0.27899066 0.9602938
    outer loop
      vertex -65 -16.24345 5.1570835
      vertex 65 -16.545086 5.2447166
      vertex 65 -16.24345 5.1570835
    endloop
  endfacet
  facet normal 0 0.27899066 0.9602938
    outer loop
      vertex 65 -16.545086 5.2447166
      vertex -65 -16.24345 5.1570835
      vertex -65 -16.545086 5.2447166
    endloop
  endfacet
  facet normal 0 0.91775346 0.3971506
    outer loop
      vertex 65 -19.524136 7.8711033
      vertex -65 -19.648884 8.159377
      vertex 65 -19.648884 8.159377
    endloop
  endfacet
  facet normal 0 0.91775346 0.3971506
    outer loop
      vertex -65 -19.648884 8.159377
      vertex 65 -19.524136 7.8711033
      vertex -65 -19.524136 7.8711033
    endloop
  endfacet
  facet normal 0 0.827082 0.5620813
    outer loop
      vertex 65 -19.045086 7.0610733
      vertex -65 -19.22164 7.3208656
      vertex 65 -19.22164 7.3208656
    endloop
  endfacet
  facet normal 0 0.827082 0.5620813
    outer loop
      vertex -65 -19.22164 7.3208656
      vertex 65 -19.045086 7.0610733
      vertex -65 -19.045086 7.0610733
    endloop
  endfacet
  facet normal 0 0.98768836 0.15643434
    outer loop
      vertex 65 -19.911438 9.063093
      vertex -65 -19.960575 9.373333
      vertex 65 -19.960575 9.373333
    endloop
  endfacet
  facet normal 0 0.98768836 0.15643434
    outer loop
      vertex -65 -19.960575 9.373333
      vertex 65 -19.911438 9.063093
      vertex -65 -19.911438 9.063093
    endloop
  endfacet
  facet normal 0 0.6129078 0.7901544
    outer loop
      vertex -65 -17.938927 5.954914
      vertex 65 -18.18712 6.1474333
      vertex 65 -17.938927 5.954914
    endloop
  endfacet
  facet normal 0 0.6129078 0.7901544
    outer loop
      vertex 65 -18.18712 6.1474333
      vertex -65 -17.938927 5.954914
      vertex -65 -18.18712 6.1474333
    endloop
  endfacet
  facet normal 0 0.45399195 0.89100575
    outer loop
      vertex -65 -17.128897 5.4758644
      vertex 65 -17.408768 5.6184664
      vertex 65 -17.128897 5.4758644
    endloop
  endfacet
  facet normal 0 0.45399195 0.89100575
    outer loop
      vertex 65 -17.408768 5.6184664
      vertex -65 -17.128897 5.4758644
      vertex -65 -17.408768 5.6184664
    endloop
  endfacet
  facet normal 0 0.39714694 0.917755
    outer loop
      vertex -65 -16.840622 5.351117
      vertex 65 -17.128897 5.4758644
      vertex 65 -16.840622 5.351117
    endloop
  endfacet
  facet normal 0 0.39714694 0.917755
    outer loop
      vertex 65 -17.128897 5.4758644
      vertex -65 -16.840622 5.351117
      vertex -65 -17.128897 5.4758644
    endloop
  endfacet
  facet normal 0 0.9408811 0.33873698
    outer loop
      vertex 65 -19.648884 8.159377
      vertex -65 -19.755283 8.454914
      vertex 65 -19.755283 8.454914
    endloop
  endfacet
  facet normal 0 0.9408811 0.33873698
    outer loop
      vertex -65 -19.755283 8.454914
      vertex 65 -19.648884 8.159377
      vertex -65 -19.648884 8.159377
    endloop
  endfacet
  facet normal 0 0.7501134 0.6613092
    outer loop
      vertex 65 -18.644844 6.577264
      vertex -65 -18.852566 6.8128796
      vertex 65 -18.852566 6.8128796
    endloop
  endfacet
  facet normal 0 0.7501134 0.6613092
    outer loop
      vertex -65 -18.852566 6.8128796
      vertex 65 -18.644844 6.577264
      vertex -65 -18.644844 6.577264
    endloop
  endfacet
  facet normal 0 0.9995067 0.031405747
    outer loop
      vertex 65 -19.990135 9.686047
      vertex -65 -20 10
      vertex 65 -20 10
    endloop
  endfacet
  facet normal 0 0.9995067 0.031405747
    outer loop
      vertex -65 -20 10
      vertex 65 -19.990135 9.686047
      vertex -65 -19.990135 9.686047
    endloop
  endfacet
  facet normal 0 0.8607405 0.50904405
    outer loop
      vertex 65 -19.22164 7.3208656
      vertex -65 -19.381535 7.5912313
      vertex 65 -19.381535 7.5912313
    endloop
  endfacet
  facet normal 0 0.8607405 0.50904405
    outer loop
      vertex -65 -19.381535 7.5912313
      vertex 65 -19.22164 7.3208656
      vertex -65 -19.22164 7.3208656
    endloop
  endfacet
  facet normal 0 0.97591615 0.2181461
    outer loop
      vertex 65 -19.842916 8.75655
      vertex -65 -19.911438 9.063093
      vertex 65 -19.911438 9.063093
    endloop
  endfacet
  facet normal 0 0.97591615 0.2181461
    outer loop
      vertex -65 -19.911438 9.063093
      vertex 65 -19.842916 8.75655
      vertex -65 -19.842916 8.75655
    endloop
  endfacet
  facet normal 0 0.66130936 0.75011325
    outer loop
      vertex -65 -18.18712 6.1474333
      vertex 65 -18.422737 6.355156
      vertex 65 -18.18712 6.1474333
    endloop
  endfacet
  facet normal 0 0.66130936 0.75011325
    outer loop
      vertex 65 -18.422737 6.355156
      vertex -65 -18.18712 6.1474333
      vertex -65 -18.422737 6.355156
    endloop
  endfacet
  facet normal 0 0.99556196 0.09410815
    outer loop
      vertex 65 -19.960575 9.373333
      vertex -65 -19.990135 9.686047
      vertex 65 -19.990135 9.686047
    endloop
  endfacet
  facet normal 0 0.99556196 0.09410815
    outer loop
      vertex -65 -19.990135 9.686047
      vertex 65 -19.960575 9.373333
      vertex -65 -19.960575 9.373333
    endloop
  endfacet
  facet normal 0 0.9602938 0.27899066
    outer loop
      vertex 65 -19.755283 8.454914
      vertex -65 -19.842916 8.75655
      vertex 65 -19.842916 8.75655
    endloop
  endfacet
  facet normal 0 0.9602938 0.27899066
    outer loop
      vertex -65 -19.842916 8.75655
      vertex 65 -19.755283 8.454914
      vertex -65 -19.755283 8.454914
    endloop
  endfacet
  facet normal 0 0 1
    outer loop
      vertex 45 -20 50
      vertex 64.995 -25 50
      vertex 64.995 -20 50
    endloop
  endfacet
  facet normal 0 0 1
    outer loop
      vertex 64.995 -25 50
      vertex 45 -20 50
      vertex 45 -25 50
    endloop
  endfacet
  facet normal 0 1 0
    outer loop
      vertex 65 -20 10
      vertex 64.995 -20 20
      vertex 65 -20 20
    endloop
  endfacet
  facet normal 0 1 0
    outer loop
      vertex 64.995 -20 20
      vertex 65 -20 10
      vertex 29.7 -20 20
    endloop
  endfacet
  facet normal 0 1 0
    outer loop
      vertex 29.7 -20 20
      vertex 65 -20 10
      vertex -29.7 -20 20
    endloop
  endfacet
  facet normal 0 1 0
    outer loop
      vertex -65 -20 10
      vertex -29.7 -20 20
      vertex 65 -20 10
    endloop
  endfacet
  facet normal 0 1 0
    outer loop
      vertex -29.7 -20 20
      vertex -65 -20 10
      vertex -64.995 -20 20
    endloop
  endfacet
  facet normal 0 1 0
    outer loop
      vertex -64.995 -20 20
      vertex -65 -20 10
      vertex -65 -20 20
    endloop
  endfacet
  facet normal 0 1 0
    outer loop
      vertex 64.995 -20 20
      vertex 45 -20 50
      vertex 64.995 -20 50
    endloop
  endfacet
  facet normal 0 1 0
    outer loop
      vertex 45 -20 50
      vertex 64.995 -20 20
      vertex 29.7 -20 20
    endloop
  endfacet
  facet normal 0 1 0
    outer loop
      vertex -64.995 -20 20
      vertex -45 -20 50
      vertex -29.7 -20 20
    endloop
  endfacet
  facet normal 0 1 0
    outer loop
      vertex -45 -20 50
      vertex -64.995 -20 20
      vertex -64.995 -20 50
    endloop
  endfacet
  facet normal -0.89083546 0 0.45432606
    outer loop
      vertex 29.7 -25 20
      vertex 45 -20 50
      vertex 29.7 -20 20
    endloop
  endfacet
  facet normal -0.89083546 0 0.45432606
    outer loop
      vertex 45 -20 50
      vertex 29.7 -25 20
      vertex 45 -25 50
    endloop
  endfacet
  facet normal 1 0 0
    outer loop
      vertex 64.995 -25 50
      vertex 64.995 -20 20
      vertex 64.995 -20 50
    endloop
  endfacet
  facet normal 1 0 0
    outer loop
      vertex 64.995 -20 20
      vertex 64.995 -25 50
      vertex 64.995 -25 20
    endloop
  endfacet
  facet normal 0 0 1
    outer loop
      vertex -64.995 -20 50
      vertex -45 -25 50
      vertex -45 -20 50
    endloop
  endfacet
  facet normal 0 0 1
    outer loop
      vertex -45 -25 50
      vertex -64.995 -20 50
      vertex -64.995 -25 50
    endloop
  endfacet
  facet normal 0.89083546 0 0.45432606
    outer loop
      vertex -45 -25 50
      vertex -29.7 -20 20
      vertex -45 -20 50
    endloop
  endfacet
  facet normal 0.89083546 0 0.45432606
    outer loop
      vertex -29.7 -20 20
      vertex -45 -25 50
      vertex -29.7 -25 20
    endloop
  endfacet
  facet normal -1 0 0
    outer loop
      vertex -64.995 -25 20
      vertex -64.995 -20 50
      vertex -64.995 -20 20
    endloop
  endfacet
  facet normal -1 0 0
    outer loop
      vertex -64.995 -20 50
      vertex -64.995 -25 20
      vertex -64.995 -25 50
    endloop
  endfacet
  facet normal 0 0 1
    outer loop
      vertex -65 15 5
      vertex 65 -15 5
      vertex 65 15 5
    endloop
  endfacet
  facet normal 0 0 1
    outer loop
      vertex 65 -15 5
      vertex -65 15 5
      vertex -65 -15 5
    endloop
  endfacet
  facet normal 0 0 1
    outer loop
      vertex -65 25 20
      vertex 65 20 20
      vertex 65 25 20
    endloop
  endfacet
  facet normal 0 0 1
    outer loop
      vertex 65 20 20
      vertex -65 25 20
      vertex -65 20 20
    endloop
  endfacet
  facet normal 0 -1 0
    outer loop
      vertex -65 20 10
      vertex 65 20 20
      vertex -65 20 20
    endloop
  endfacet
  facet normal 0 -1 0
    outer loop
      vertex 65 20 20
      vertex -65 20 10
      vertex 65 20 10
    endloop
  endfacet
  facet normal 0 0 1
    outer loop
      vertex 64.995 -20 20
      vertex 65 -25 20
      vertex 65 -20 20
    endloop
  endfacet
  facet normal 0 0 1
    outer loop
      vertex 65 -25 20
      vertex 64.995 -20 20
      vertex 64.995 -25 20
    endloop
  endfacet
  facet normal 0 0 1
    outer loop
      vertex -65 -20 20
      vertex -64.995 -25 20
      vertex -64.995 -20 20
    endloop
  endfacet
  facet normal 0 0 1
    outer loop
      vertex -64.995 -25 20
      vertex -65 -20 20
      vertex -65 -25 20
    endloop
  endfacet
  facet normal 0 0 1
    outer loop
      vertex -29.7 -20 20
      vertex 29.7 -25 20
      vertex 29.7 -20 20
    endloop
  endfacet
  facet normal 0 0 1
    outer loop
      vertex 29.7 -25 20
      vertex -29.7 -20 20
      vertex -29.7 -25 20
    endloop
  endfacet
endsolid OpenSCAD_Model
